<?xml version="1.0" standalone="no"?>
<!DOCTYPE svg PUBLIC "-//W3C//DTD SVG 20010904//EN"
 "http://www.w3.org/TR/2001/REC-SVG-20010904/DTD/svg10.dtd">
<svg version="1.0" xmlns="http://www.w3.org/2000/svg"
 width="640.000000pt" height="640.000000pt" viewBox="0 0 640.000000 640.000000"
 preserveAspectRatio="xMidYMid meet">

<g transform="translate(0.000000,640.000000) scale(0.100000,-0.100000)"
fill="#000000" stroke="none">
<path d="M3475 6390 c-38 -4 -149 -11 -245 -14 -432 -17 -765 -65 -1089 -156
-348 -98 -564 -208 -835 -426 -341 -274 -691 -724 -919 -1184 -40 -80 -98
-190 -129 -245 -190 -334 -281 -697 -249 -992 19 -180 44 -275 145 -569 123
-356 273 -627 519 -942 85 -107 100 -132 122 -205 161 -514 345 -866 585
-1120 282 -300 632 -472 1070 -526 211 -27 509 1 816 75 59 14 135 24 180 25
44 1 106 5 139 9 58 7 57 7 -35 9 l-95 2 148 49 c195 66 336 122 597 237 276
122 431 201 604 308 77 47 141 83 143 81 7 -7 -145 -137 -259 -222 -215 -159
-475 -300 -681 -369 -107 -36 -267 -74 -314 -76 l-28 -1 29 -8 c30 -9 79 -2
181 26 33 9 76 20 96 25 53 13 183 62 272 104 148 69 427 249 539 347 29 26
72 62 95 81 23 19 95 87 160 150 65 63 152 143 193 178 107 89 288 268 384
379 457 527 726 1186 726 1781 0 80 7 148 21 215 24 115 33 244 30 439 -6 427
-165 854 -464 1250 -58 77 -162 183 -553 566 -228 224 -364 330 -569 446 -252
142 -565 238 -887 273 -108 11 -335 11 -443 0z m575 -45 c369 -57 704 -198
1004 -424 105 -79 279 -231 272 -238 -2 -3 -35 15 -73 39 -113 73 -261 154
-383 208 -63 29 -141 71 -175 95 -202 143 -523 260 -855 309 -235 36 -234 35
-60 31 91 -2 212 -12 270 -20z m-410 -16 c242 -21 487 -74 680 -146 102 -38
314 -142 306 -150 -3 -3 -40 6 -83 21 -233 76 -464 116 -718 123 -257 7 -471
-18 -742 -86 -43 -11 -125 -25 -183 -31 -304 -33 -641 -116 -874 -217 -161
-69 -163 -66 -16 23 370 224 811 392 1205 459 137 23 203 24 425 4z m-675 -28
c-408 -106 -826 -298 -1170 -540 -55 -38 -149 -100 -210 -137 -450 -274 -854
-609 -1083 -901 -31 -39 -58 -70 -60 -68 -7 6 132 242 223 380 297 447 682
812 1049 997 258 130 617 227 1024 278 193 24 219 26 307 28 l70 1 -150 -38z
m1170 -180 c172 -31 310 -65 470 -118 l139 -47 81 -77 c72 -69 155 -169 141
-169 -3 0 -40 23 -83 51 -219 143 -513 245 -868 301 -104 16 -196 21 -458 25
-180 3 -326 7 -324 9 4 5 241 41 307 47 25 3 142 3 260 2 163 -2 244 -8 335
-24z m-145 -85 c363 -53 669 -161 917 -325 90 -60 149 -119 141 -142 -2 -6
-32 11 -68 37 -101 74 -346 234 -359 234 -32 0 -1 -31 86 -85 109 -67 344
-234 384 -272 15 -14 35 -46 44 -71 24 -65 107 -220 212 -397 209 -351 254
-444 319 -665 31 -108 37 -145 43 -270 5 -99 12 -156 23 -180 l16 -35 2 60 c2
70 11 55 30 -48 9 -49 10 -75 2 -90 -6 -12 -15 -80 -22 -152 -6 -71 -14 -154
-17 -184 -4 -39 -3 -52 5 -47 7 4 14 -4 18 -21 l7 -28 8 28 c4 15 10 60 14
100 6 61 4 75 -9 86 -15 13 -15 15 4 28 11 8 20 24 21 36 2 41 17 -46 31 -173
17 -164 16 -603 -1 -745 -7 -60 -26 -182 -42 -270 -26 -141 -34 -166 -65 -211
-19 -29 -43 -59 -53 -68 -18 -16 -18 -15 -10 26 11 57 11 70 0 63 -5 -3 -12
-1 -16 4 -3 5 -14 8 -25 6 -11 -2 -20 0 -20 6 0 5 -7 9 -15 9 -8 0 -15 6 -15
13 -1 6 -10 -10 -22 -36 -16 -38 -18 -51 -9 -56 10 -6 9 -10 -4 -15 -9 -3 -13
-10 -10 -16 3 -5 0 -7 -8 -4 -9 3 -19 -9 -30 -37 -9 -23 -48 -98 -86 -168 -38
-69 -80 -152 -92 -185 -19 -53 -90 -149 -75 -102 6 16 4 17 -9 6 -13 -11 -13
-15 -3 -21 10 -6 3 -18 -26 -46 l-39 -38 28 40 c24 34 21 32 -16 -10 -200
-229 -442 -437 -689 -591 -193 -119 -382 -199 -624 -262 -81 -21 -144 -41
-141 -44 3 -3 -6 -8 -20 -10 -14 -3 -25 -1 -25 3 0 15 -28 10 -34 -6 -3 -8
-13 -15 -21 -15 -9 0 -13 5 -10 11 9 14 -63 1 -92 -17 -25 -15 -37 -18 -30 -6
3 4 -128 7 -291 7 -164 0 -312 3 -331 7 -29 7 -32 6 -27 -9 6 -15 5 -16 -11
-1 -10 9 -76 28 -147 42 -71 15 -180 43 -242 62 -63 19 -116 34 -118 34 -2 0
1 -18 6 -40 19 -73 -14 -64 -53 13 -20 40 -36 57 -70 74 -24 12 -48 22 -52 22
-4 1 9 -24 28 -55 20 -31 34 -58 31 -61 -2 -2 -23 28 -47 67 -31 52 -52 76
-80 91 -22 11 -39 16 -39 13 0 -4 18 -38 39 -75 22 -38 37 -69 32 -69 -12 0
-181 70 -236 97 -27 14 -72 46 -100 70 -112 101 -415 446 -415 474 0 7 -15 27
-32 44 -93 88 -335 493 -453 755 -48 107 -135 327 -135 343 0 4 17 7 38 5 37
-3 37 -3 60 -78 44 -143 76 -223 95 -240 10 -10 20 -34 22 -53 4 -38 39 -127
51 -127 3 0 51 23 106 52 l100 52 -7 96 c-3 52 -11 134 -16 182 -10 97 -8 109
24 124 12 5 21 15 20 22 -2 6 3 9 11 6 8 -3 22 5 31 18 l17 23 -5 -35 c-4 -19
-15 -86 -26 -148 -11 -62 -23 -151 -27 -197 l-7 -85 114 58 c63 32 133 65 157
74 27 11 42 23 42 34 0 9 -16 89 -34 178 -56 258 -56 251 -7 340 23 41 45 93
49 116 l7 40 55 -72 c30 -40 92 -110 137 -156 75 -78 82 -88 88 -135 3 -29 13
-75 21 -104 12 -43 17 -50 34 -46 30 8 32 17 19 82 -6 33 -10 64 -8 70 3 7 20
0 44 -16 l40 -27 -18 24 c-10 14 -31 52 -46 85 -25 51 -30 77 -36 175 -6 105
-5 113 9 95 8 -11 16 -26 16 -32 0 -19 18 -16 46 6 28 22 91 18 110 -7 9 -12
12 -12 23 2 11 13 37 16 142 16 79 0 129 4 129 10 0 6 -43 10 -107 10 -108 1
-283 13 -348 26 -26 4 -35 11 -35 26 0 19 -26 156 -37 193 -5 19 -5 19 14 3
11 -10 24 -18 30 -18 6 0 13 -6 15 -12 3 -7 5 8 6 34 1 26 -7 86 -18 134 -11
48 -19 88 -17 90 2 2 18 7 35 10 27 5 32 3 32 -12 0 -11 7 -58 17 -106 18 -95
32 -109 88 -88 42 16 80 12 101 -11 l19 -21 18 23 c17 22 21 22 65 10 56 -14
92 -36 92 -55 0 -22 -30 -88 -62 -133 -53 -78 -113 -67 -178 30 -22 33 -43 70
-46 82 -3 14 -15 25 -31 28 -22 4 -24 2 -18 -22 19 -77 144 -201 204 -201 37
0 123 93 152 166 20 48 24 77 24 156 l0 97 22 -20 c20 -19 59 -24 55 -6 -1 4
-2 20 -2 35 0 49 -61 107 -164 157 -50 24 -122 54 -161 66 -41 13 -82 34 -100
51 l-30 28 55 1 55 2 -63 7 c-62 7 -66 9 -134 76 -39 38 -67 60 -63 49 6 -17
37 -131 47 -175 2 -12 -12 -15 -87 -15 l-90 0 -18 108 -18 107 32 73 c17 39
35 76 40 82 12 12 140 8 299 -11 374 -43 372 -42 481 -102 130 -71 128 -69
148 -148 20 -79 27 -94 43 -94 10 0 9 21 -8 112 l-6 36 56 -21 c41 -16 56 -27
57 -42 0 -11 7 -38 15 -60 l14 -40 -6 40 c-3 22 -7 54 -9 70 -6 54 -26 125
-36 125 -11 0 -11 -7 0 -48 21 -72 -8 -14 -88 177 -47 110 -87 199 -89 197 -7
-7 82 -302 104 -343 15 -30 18 -43 10 -43 -18 0 -44 31 -57 68 -13 39 -27 41
-31 6 l-3 -26 -55 29 c-37 20 -56 36 -58 51 -3 16 -13 23 -40 28 -104 19 -142
64 -267 319 -54 111 -78 172 -90 234 l-17 84 27 104 c15 59 24 115 21 129 -5
18 -2 24 11 25 10 0 13 3 6 5 -7 3 -9 12 -6 20 4 12 -1 12 -30 -3 -22 -11 -41
-30 -48 -48 -16 -43 -32 -75 -35 -72 -5 5 94 302 121 362 98 217 132 305 119
305 -7 0 -23 -21 -34 -47 -11 -27 -30 -66 -40 -88 -17 -33 -19 -35 -15 -12 3
16 16 51 30 78 13 27 20 49 15 49 -4 0 -35 -13 -68 -30 -34 -16 -64 -30 -67
-30 -14 0 -213 -115 -297 -172 -125 -84 -270 -203 -363 -299 -44 -46 -69 -74
-56 -64 13 11 31 20 40 20 22 0 43 14 36 25 -3 4 6 7 20 5 14 -1 25 2 25 6 0
5 5 9 11 9 7 0 34 14 61 30 26 17 55 30 63 30 8 0 15 3 15 8 0 4 26 22 59 40
32 17 64 39 71 47 7 8 18 15 24 15 6 0 19 8 28 18 8 9 33 31 54 49 103 85 121
101 166 146 26 26 48 52 48 57 0 11 59 54 66 47 3 -2 -20 -58 -50 -123 -29
-66 -60 -139 -67 -164 -15 -52 -139 -392 -203 -555 -24 -60 -62 -169 -85 -242
-23 -73 -50 -153 -61 -178 l-19 -45 -61 0 c-53 0 -61 -2 -58 -17 2 -14 16 -19
56 -23 l53 -5 -62 -120 c-94 -183 -344 -559 -515 -777 -181 -228 -416 -467
-434 -438 -27 43 -90 355 -90 444 0 84 24 178 43 170 9 -3 36 63 90 223 42
125 77 231 77 236 0 4 -18 7 -40 7 -22 0 -40 3 -40 6 0 3 23 74 50 157 58 174
169 406 289 605 76 126 221 303 350 427 26 25 39 45 36 55 -3 9 4 25 15 35 12
11 20 13 20 6 0 -7 5 -9 13 -4 6 4 14 8 17 8 14 1 189 149 184 156 -3 5 1 6 9
3 8 -3 18 0 23 7 4 8 3 10 -4 5 -7 -4 -12 -5 -12 -2 0 3 17 14 38 25 20 11 75
45 121 76 46 30 86 54 88 51 3 -2 39 13 82 34 109 54 187 88 232 100 33 9 47
22 86 80 25 38 49 67 53 65 4 -3 5 -26 2 -51 -3 -28 -1 -45 4 -41 5 3 10 36
12 72 3 117 29 142 223 224 195 83 318 120 427 130 160 15 758 6 892 -13z
m-1161 -20 c-2 -2 -65 -28 -139 -57 -74 -30 -139 -56 -145 -58 -5 -2 -4 3 4
12 17 21 6 21 -51 3 -24 -7 -65 -19 -91 -25 -40 -10 -70 -31 -176 -124 -70
-62 -169 -140 -218 -175 -114 -77 -289 -214 -367 -286 -45 -41 -70 -57 -100
-62 -55 -9 -57 -11 -44 -39 9 -20 8 -28 -7 -45 -21 -24 -55 -11 -55 22 0 15
-5 19 -17 15 -98 -29 -212 -57 -229 -57 -13 0 -44 -24 -77 -59 -59 -62 -69
-81 -41 -81 14 0 14 -3 4 -15 -7 -8 -22 -15 -35 -15 -29 0 -65 -38 -46 -50 9
-5 12 -20 9 -41 -4 -24 0 -37 11 -46 21 -15 10 -25 -31 -26 -32 -2 -33 -1 -31
36 2 25 -1 36 -8 31 -42 -26 133 202 270 352 173 189 407 389 541 461 195 105
482 214 705 267 167 40 380 77 364 62z m2378 -300 c164 -101 246 -168 315
-257 107 -137 184 -263 278 -454 77 -156 180 -412 180 -446 0 -7 -36 43 -81
111 -92 138 -213 292 -336 426 -82 90 -288 282 -379 352 -28 22 -54 54 -65 79
-27 63 -172 272 -223 323 -25 24 -46 48 -46 53 0 11 241 -114 357 -187z
m-2793 66 c-6 -4 -17 -18 -24 -31 -10 -19 -14 -21 -21 -10 -9 15 22 49 45 49
8 0 8 -2 0 -8z m-61 -103 c-8 -27 -23 -34 -23 -10 0 12 4 21 10 21 5 0 7 7 3
16 -4 11 -11 4 -26 -25 -12 -23 -24 -41 -29 -41 -13 0 -9 17 7 30 9 7 13 15
10 18 -3 3 3 14 12 24 16 18 18 18 29 3 7 -9 10 -25 7 -36z m-194 -60 c26 -9
31 -16 29 -39 l-2 -28 -76 5 c-41 3 -77 7 -79 8 -2 3 88 65 94 65 1 0 16 -5
34 -11z m-95 -122 c-66 -48 -95 -66 -79 -49 19 20 119 92 128 92 5 0 -17 -19
-49 -43z m-751 -134 c-270 -269 -431 -495 -578 -814 -167 -360 -210 -476 -207
-561 3 -57 1 -60 -55 -163 -17 -31 -51 -234 -63 -375 -15 -183 -9 -560 9 -560
3 0 37 55 75 121 55 97 66 123 55 130 -44 27 -45 28 -20 49 13 11 27 20 31 20
11 0 18 -90 25 -325 3 -110 6 -209 8 -220 1 -14 -14 -28 -60 -55 -34 -19 -63
-42 -63 -50 0 -29 79 -288 118 -386 60 -152 114 -264 123 -258 9 5 25 -44 17
-52 -8 -7 -191 260 -282 411 -82 135 -203 376 -254 505 -32 80 -76 261 -92
375 -15 107 -12 396 5 508 35 235 128 558 212 737 117 249 448 605 823 887
115 86 308 221 318 223 2 0 -64 -66 -145 -147z m4513 -177 c351 -407 545 -898
546 -1381 0 -129 -18 -328 -31 -353 -4 -8 -13 31 -20 85 -32 265 -118 562
-228 788 -19 39 -48 117 -64 175 -92 313 -220 595 -380 832 -32 48 -59 91 -59
95 0 13 141 -130 236 -241z m-607 197 c77 -63 339 -323 421 -418 135 -158 257
-332 353 -505 26 -47 42 -98 60 -185 102 -489 102 -988 1 -1495 -23 -114 -30
-132 -76 -203 -28 -43 -52 -76 -54 -75 -1 2 7 39 17 83 18 69 20 101 15 230
-5 131 -27 299 -41 314 -3 2 -5 -36 -6 -85 0 -49 -4 -141 -8 -204 -7 -109 -6
-116 13 -132 l21 -18 -22 -6 c-24 -7 -26 -16 -43 -172 -10 -86 -27 -143 -48
-156 -5 -3 -1 36 9 87 45 230 54 343 54 642 -1 290 -9 394 -51 660 -8 50 -11
113 -8 140 5 47 4 49 -10 31 -16 -20 -16 -20 -16 0 0 10 -3 29 -6 40 -4 15 0
23 14 26 29 8 39 145 15 214 l-18 49 -2 -45 c-2 -25 -6 -79 -9 -120 l-7 -75
-18 75 c-10 41 -21 107 -25 147 -5 54 -10 70 -20 66 -10 -4 -14 4 -14 25 0 17
-6 43 -14 59 -8 15 -24 61 -36 101 -27 92 -127 287 -260 507 -111 183 -246
435 -234 435 4 0 28 -17 53 -37z m-3008 -100 c-12 -20 -14 -14 -5 12 4 9 9 14
11 11 3 -2 0 -13 -6 -23z m-551 -38 c0 -2 -10 -9 -22 -15 -22 -11 -22 -10 -4
4 21 17 26 19 26 11z m-590 -463 c0 -17 -32 -103 -37 -98 -2 2 0 21 6 42 l10
37 -83 -6 c-86 -7 -103 -3 -85 20 13 15 189 19 189 5z m967 -99 c-3 -10 -5 -2
-5 17 0 19 2 27 5 18 2 -10 2 -26 0 -35z m-1073 -6 c18 -13 20 -58 5 -106 -2
-9 6 -17 20 -20 21 -6 22 -8 8 -19 -9 -8 -28 -12 -44 -10 -26 3 -28 6 -25 44
2 34 -1 43 -18 47 -27 7 -26 42 2 61 27 19 29 19 52 3z m1071 -331 c16 -54 93
-213 117 -244 6 -7 8 -15 5 -18 -3 -3 -69 2 -147 10 -79 9 -160 16 -181 16
-25 0 -39 5 -39 13 0 7 35 98 78 202 44 105 87 212 97 239 l19 49 17 -104 c9
-57 24 -130 34 -163z m84 172 c6 -29 20 -111 32 -182 12 -71 29 -158 39 -193
10 -34 15 -63 10 -63 -11 0 -75 154 -99 239 -26 87 -35 161 -22 161 6 0 11 20
11 45 0 61 16 57 29 -7z m196 -418 c33 -34 32 -40 -7 -40 -64 0 -74 8 -87 63
-28 129 -41 189 -41 195 0 4 25 -38 55 -92 30 -55 66 -111 80 -126z m3855 -36
c70 -198 126 -469 136 -661 6 -107 5 -109 -36 -233 -42 -125 -96 -251 -157
-365 -18 -33 -33 -55 -33 -50 0 6 9 58 20 117 41 228 54 383 54 658 0 257 -9
382 -40 575 -8 50 -17 104 -19 120 -7 42 34 -45 75 -161z m-5994 27 c-85 -268
-121 -506 -114 -756 5 -161 5 -167 -9 -110 -7 33 -16 125 -19 205 -8 169 9
305 57 476 30 107 108 309 116 300 2 -2 -12 -54 -31 -115z m1474 -294 c0 -14
-6 -24 -15 -24 -18 0 -18 2 -3 27 16 25 18 25 18 -3z m8 -254 c9 -21 23 -42
30 -46 30 -19 54 -92 62 -186 11 -120 44 -305 70 -391 11 -36 20 -78 20 -95
-1 -29 -3 -27 -80 52 -97 99 -155 187 -208 313 -62 146 -62 138 9 273 34 64
66 117 71 117 4 0 16 -17 26 -37z m492 -33 c0 -12 7 -20 16 -20 14 0 16 -8 10
-52 -4 -29 -11 -57 -16 -61 -10 -11 -54 119 -46 138 8 22 36 18 36 -5z m4165
-357 c-2 -16 -7 -73 -10 -128 -16 -283 -114 -625 -267 -929 -137 -272 -342
-562 -560 -791 -109 -115 -257 -250 -240 -220 6 11 63 85 127 165 64 80 140
179 169 220 214 306 394 698 497 1085 12 46 42 117 70 167 66 115 140 273 175
375 29 82 47 109 39 56z m-5663 -466 l-21 -20 -5 34 c-3 19 -7 77 -10 129 l-4
95 30 -109 30 -109 -20 -20z m5290 -323 c-70 -210 -156 -409 -248 -578 -66
-120 -204 -340 -210 -334 -2 2 21 51 51 109 93 181 192 442 245 648 7 25 23
61 37 80 l24 36 -7 -50 c-3 -27 -10 -58 -15 -67 -12 -23 -11 -37 1 -18 5 8 24
58 41 110 28 85 124 258 136 246 2 -2 -23 -84 -55 -182z m-4831 -64 l29 34 0
-31 c0 -18 -5 -35 -11 -38 -6 -4 -7 -19 -3 -37 6 -29 4 -30 -17 -25 -13 3 -29
1 -36 -4 -19 -17 -35 -1 -21 21 10 15 7 24 -20 55 -43 48 -30 67 15 23 l35
-33 29 35z m4450 -77 c-12 -20 -14 -14 -5 12 4 9 9 14 11 11 3 -2 0 -13 -6
-23z m163 -95 c-36 -127 -125 -372 -140 -387 -7 -8 7 68 27 148 10 41 19 84
19 95 1 37 26 93 64 145 21 28 39 51 41 51 2 0 -3 -24 -11 -52z m-4804 -40 c0
-11 -7 -10 -31 3 -17 9 -18 13 -8 26 12 13 14 13 26 -3 7 -10 13 -21 13 -26z
m38 -73 c13 -28 21 -22 -105 -86 -93 -48 -103 -49 -103 -4 0 15 66 56 123 76
21 7 43 19 49 26 15 19 23 16 36 -12z m-108 -183 c0 -31 11 -33 32 -7 22 29
78 34 98 10 32 -39 -37 -109 -86 -87 -19 9 -24 8 -29 -8 -10 -31 -39 -26 -31
5 5 20 3 25 -13 25 -25 0 -37 18 -17 26 9 3 16 11 16 17 0 7 -4 7 -12 -1 -16
-16 -28 -15 -28 3 0 16 27 34 53 35 10 0 17 -7 17 -18z m284 -155 c17 -3 55
-43 56 -59 0 -3 -8 -4 -17 -2 -32 8 -86 12 -175 13 -85 1 -87 2 -109 32 l-22
32 124 -7 c68 -3 132 -7 143 -9z m-184 -157 c113 -146 128 -160 140 -139 15
23 35 -4 21 -28 -8 -17 1 -31 64 -99 l73 -79 11 28 c9 24 14 26 30 17 11 -5
23 -15 26 -20 23 -37 399 -307 566 -407 63 -38 147 -94 185 -125 129 -103 370
-255 536 -339 185 -93 451 -184 596 -204 28 -4 52 -10 52 -14 0 -7 -122 -33
-275 -57 -132 -21 -420 -29 -545 -15 -346 39 -659 176 -919 403 -224 194 -423
499 -574 883 -48 122 -117 323 -117 341 0 15 39 -29 130 -146z m4544 23 c-129
-242 -169 -299 -329 -459 -198 -198 -356 -315 -574 -424 -308 -154 -631 -236
-1005 -256 l-126 -7 0 57 c0 94 34 146 119 182 44 18 43 18 39 -13 -2 -22 -11
-30 -48 -43 -57 -20 -90 -66 -90 -126 0 -44 0 -44 35 -44 32 0 35 2 25 19 -20
38 -12 70 22 91 52 31 92 -4 71 -61 -11 -28 -10 -29 18 -29 19 0 32 7 40 21
15 28 6 105 -15 128 -17 19 -21 48 -8 68 11 18 62 28 62 12 0 -7 9 -32 21 -56
15 -32 20 -57 17 -99 l-3 -56 30 6 c34 7 45 22 43 56 -3 39 10 52 44 45 28 -7
37 0 146 115 100 105 127 127 195 162 44 21 81 38 83 36 7 -8 -104 -147 -171
-214 -38 -39 -101 -92 -140 -117 -38 -26 -65 -47 -59 -47 6 0 78 23 160 51
166 56 294 113 294 129 0 6 5 8 12 4 7 -5 8 -3 4 5 -9 14 22 53 35 45 5 -3 6
2 3 10 -3 9 -2 16 4 16 5 0 13 11 16 25 4 14 11 23 16 20 6 -4 8 -11 5 -16 -9
-14 52 -4 72 12 15 12 16 12 8 -1 -8 -13 -6 -13 8 -2 17 15 41 7 31 -10 -4 -6
2 -6 15 1 24 13 29 23 7 15 -9 -3 -13 1 -13 13 1 9 -3 18 -10 18 -6 0 -15 3
-19 7 -4 5 9 8 30 8 27 0 35 3 30 13 -6 8 -3 8 9 -1 9 -8 21 -11 27 -7 5 3 10
2 10 -4 0 -14 -35 -32 -45 -23 -5 4 -5 1 -1 -6 7 -11 12 -11 29 1 26 17 29 43
5 41 -10 -1 -16 3 -15 8 1 6 -6 12 -16 13 -23 4 -30 11 -26 23 3 5 18 5 37 0
20 -5 30 -13 26 -20 -5 -7 -3 -8 6 -3 7 4 16 2 21 -6 6 -10 9 -6 9 14 0 15 -7
30 -15 33 -8 4 -15 12 -15 20 0 8 6 11 15 8 9 -4 15 0 15 7 1 9 4 8 11 -4 5
-9 7 -22 4 -27 -9 -15 11 -12 24 4 9 11 8 15 -4 20 -8 3 -14 11 -13 18 2 8 -8
13 -29 13 -18 0 -42 9 -57 22 -14 12 -28 18 -31 13 -3 -4 0 -10 7 -12 14 -5 3
-38 -12 -38 -6 0 -9 4 -5 9 3 5 1 13 -5 16 -7 4 -8 -7 -4 -33 6 -36 3 -42 -20
-57 -14 -10 -26 -26 -26 -36 0 -12 -7 -19 -19 -19 -25 0 -35 -27 -14 -38 19
-11 2 -25 -21 -16 -22 8 -21 16 14 84 19 37 37 60 48 61 9 0 12 3 5 5 -12 6
32 94 48 94 5 0 8 6 6 13 -1 7 8 11 26 10 29 -2 34 6 15 25 -13 13 -4 16 37
13 14 -1 16 1 7 7 -10 6 -8 13 8 27 11 10 20 15 20 10 0 -4 9 4 21 19 12 15
25 23 32 19 7 -4 20 -6 29 -5 11 2 20 -6 24 -22 3 -14 11 -23 16 -20 6 4 6 10
-1 17 -6 6 -11 19 -11 29 0 15 3 16 25 6 13 -6 22 -15 19 -19 -3 -5 -3 -9 0
-9 14 0 14 20 0 35 -17 17 -11 31 16 37 16 3 39 28 40 42 0 5 -9 1 -20 -9 -13
-11 -25 -15 -37 -10 -17 8 -17 8 2 12 11 3 25 12 32 20 6 8 15 13 20 10 4 -3
16 1 26 8 16 11 16 13 2 19 -11 4 -14 2 -9 -6 4 -7 3 -8 -5 -4 -6 4 -9 12 -5
17 3 5 10 7 15 4 5 -4 9 1 9 9 0 21 29 21 44 0 10 -13 12 -13 12 5 0 11 -3 19
-6 19 -17 -1 -18 4 -3 21 13 16 20 18 37 9 19 -10 20 -10 7 5 -11 14 -11 17 0
18 8 1 18 1 23 0 5 -1 4 4 -2 12 -10 11 -9 17 3 27 8 7 15 9 15 4 0 -4 11 3
25 16 14 13 25 28 25 34 0 6 17 27 37 46 31 30 34 31 23 10 -48 -96 -220 -388
-296 -502 -50 -76 -88 -138 -84 -138 11 0 181 140 284 234 100 92 240 252 356
408 36 49 66 88 68 88 2 0 -22 -48 -54 -107z m-4227 -149 c-14 -38 -30 -69
-37 -69 -6 0 -24 18 -39 40 -15 22 -35 40 -44 40 -27 0 -24 19 5 29 22 8 30 5
50 -19 l24 -28 12 29 c6 16 17 43 23 59 11 29 12 29 21 9 7 -16 4 -38 -15 -90z
m138 -69 c62 -79 162 -193 239 -272 39 -40 67 -73 63 -73 -22 0 -286 179 -404
275 -10 8 -6 24 18 74 17 35 34 60 38 55 4 -5 25 -31 46 -59z m3485 -94 c0 -5
-6 -14 -14 -20 -12 -10 -14 -9 -11 6 2 10 4 19 4 21 2 6 21 1 21 -7z m-46 -19
c3 -5 -1 -9 -9 -9 -8 0 -12 4 -9 9 3 4 7 8 9 8 2 0 6 -4 9 -8z m-183 -255 c-1
-12 -15 -9 -19 4 -3 6 1 10 8 8 6 -3 11 -8 11 -12z m-2409 -175 c-2 -2 7 -12
19 -23 28 -24 9 -25 -20 -1 -12 9 -26 33 -31 52 l-9 35 22 -30 c12 -16 21 -31
19 -33z m-218 3 c49 -19 95 -35 102 -35 15 0 69 -68 61 -76 -8 -8 -221 103
-242 126 -10 11 -16 20 -14 20 2 0 44 -16 93 -35z m276 -125 c11 -22 18 -40
15 -40 -6 0 -45 62 -45 73 0 16 11 5 30 -33z m48 -21 c6 -24 7 -38 1 -32 -13
13 -29 73 -20 73 5 0 13 -19 19 -41z m1447 11 c8 -16 15 -32 15 -35 0 -11 -37
30 -43 48 -11 29 11 19 28 -13z m-495 0 c0 -5 -8 -10 -17 -10 -10 0 -29 -3
-43 -5 -22 -5 -21 -3 5 9 36 18 55 20 55 6z m-1107 -20 c25 -11 56 -34 68 -51
l21 -30 -48 30 c-55 35 -102 70 -93 71 4 0 27 -9 52 -20z m1166 -133 c17 -49
31 -90 31 -93 0 -2 -8 -4 -18 -4 -11 0 -25 14 -35 35 -9 19 -22 35 -28 35 -6
0 -35 -13 -64 -30 -51 -29 -52 -29 -141 -20 -96 11 -233 33 -329 54 l-60 13
40 8 c100 19 207 46 280 71 88 30 261 48 282 29 6 -5 25 -50 42 -98z m-991 37
c-4 -3 -12 5 -18 18 -12 22 -12 22 6 6 10 -10 15 -20 12 -24z m39 -31 c26 -10
55 -13 75 -9 46 9 80 8 92 -4 7 -7 2 -10 -14 -10 -36 0 -17 -11 45 -25 48 -12
55 -11 55 2 0 9 6 13 14 10 31 -12 268 -57 386 -73 176 -25 578 -25 745 -1
150 22 314 59 435 96 51 16 89 26 84 21 -11 -10 -276 -125 -428 -187 -134 -54
-270 -102 -434 -153 l-123 -39 -94 14 c-200 30 -374 86 -585 187 -131 62 -350
184 -350 194 0 6 48 -5 97 -23z"/>
<path d="M3760 5946 c0 -2 32 -67 70 -145 39 -77 70 -145 70 -151 0 -10 41
-30 60 -30 13 0 0 32 -73 184 -45 94 -68 131 -85 137 -25 9 -42 12 -42 5z"/>
<path d="M4144 5711 c-45 -21 -84 -46 -87 -56 -13 -32 -7 -64 13 -75 25 -13
36 -7 55 30 14 27 14 29 -2 24 -10 -3 0 5 22 17 47 26 93 40 99 30 3 -3 18 -8
35 -9 32 -2 125 -45 116 -54 -9 -9 56 -60 70 -54 7 2 20 -3 29 -13 19 -20 21
-35 4 -25 -7 4 -8 3 -4 -5 4 -6 12 -9 17 -6 5 4 9 1 9 -4 0 -6 6 -10 13 -8 6
1 11 -3 10 -9 -1 -6 11 -24 28 -40 23 -22 32 -26 38 -15 7 11 9 11 13 0 4 -12
7 -12 21 0 15 12 17 11 17 -9 0 -22 50 -80 70 -80 6 0 10 15 8 35 -1 25 -9 40
-28 52 -14 9 -52 42 -85 74 -80 76 -142 127 -179 147 -26 13 -214 92 -219 92
-1 0 -38 -18 -83 -39z"/>
<path d="M2437 5532 c-11 -16 0 -175 24 -340 23 -160 87 -421 135 -546 42
-110 93 -220 100 -213 3 2 -9 38 -25 79 -100 251 -209 736 -223 988 -2 27 -6
40 -11 32z"/>
<path d="M3950 5536 c0 -2 7 -21 17 -42 9 -22 44 -111 78 -199 179 -458 206
-478 63 -47 -33 101 -58 186 -55 189 3 3 60 -39 127 -92 68 -53 128 -94 135
-91 9 3 15 -3 17 -16 4 -27 19 -32 43 -15 17 13 7 23 -131 133 -82 65 -158
126 -168 136 -11 10 -26 19 -33 19 -17 2 -23 4 -56 17 -30 13 -37 14 -37 8z"/>
<path d="M4774 5475 c-10 -15 -14 -34 -10 -50 l6 -24 34 37 c25 27 32 40 24
49 -16 20 -36 15 -54 -12z"/>
<path d="M5040 5281 c-23 -6 -120 -99 -120 -115 0 -15 175 -195 180 -186 3 5
14 1 23 -10 17 -20 47 -27 47 -12 0 4 -42 53 -94 108 l-95 101 54 53 c30 29
52 57 49 62 -6 9 -7 9 -44 -1z"/>
<path d="M4391 5197 c-8 -11 -5 -19 14 -37 14 -13 25 -28 25 -34 0 -6 -26 -41
-58 -77 -118 -136 -186 -219 -197 -241 -7 -13 -24 -48 -40 -79 -35 -70 -30
-94 28 -137 43 -33 44 -34 71 -153 15 -66 31 -154 36 -197 5 -42 14 -94 20
-115 21 -69 5 -48 -35 46 -21 51 -90 200 -153 332 -154 323 -222 471 -241 527
-11 33 -20 45 -29 39 -10 -6 -11 -36 -2 -147 5 -76 17 -256 26 -399 8 -143 18
-297 21 -342 l6 -83 -111 0 -111 0 -51 83 c-67 106 -165 309 -228 467 -55 140
-78 219 -88 300 -14 113 -23 82 -24 -75 0 -145 7 -331 26 -686 l7 -127 -42 -4
c-23 -2 -46 1 -51 6 -7 7 -10 6 -10 -2 0 -7 -9 -12 -20 -12 -27 0 -26 -28 2
-32 17 -2 25 -18 44 -88 13 -47 27 -98 31 -115 l6 -30 -41 35 c-134 112 -140
119 -216 253 -15 27 -30 47 -32 44 -5 -5 18 -78 40 -131 10 -21 13 -36 7 -35
-16 6 -156 184 -218 279 -117 177 -175 285 -269 506 -107 251 -105 247 -110
242 -5 -6 48 -216 83 -323 14 -44 45 -125 68 -180 24 -55 60 -145 80 -200 21
-55 53 -134 72 -175 19 -41 42 -92 50 -113 9 -22 19 -34 23 -28 4 7 18 -11 35
-41 28 -54 72 -108 87 -108 4 0 -6 22 -22 48 -37 61 -107 209 -154 326 -38 93
-42 126 -8 59 25 -48 167 -228 230 -291 90 -90 123 -116 133 -101 6 10 24 -2
71 -47 35 -33 75 -69 91 -78 15 -10 27 -25 27 -32 0 -8 6 -14 13 -14 14 0 47
-35 47 -50 0 -5 -39 -30 -87 -54 -49 -24 -99 -53 -112 -63 l-25 -20 23 -13
c18 -9 34 -9 66 -1 24 6 96 11 159 11 l116 0 1 -37 c0 -21 8 -67 17 -103 l17
-65 40 -3 c53 -5 74 -21 49 -39 -10 -7 -26 -13 -36 -13 -25 0 -23 -15 11 -63
59 -85 133 -137 196 -137 17 0 24 -4 19 -11 -4 -8 -44 -10 -120 -8 -71 3 -115
0 -116 -6 -2 -6 65 -11 181 -13 115 -1 189 -7 198 -13 9 -8 17 -8 26 -1 19 16
103 26 112 13 4 -7 15 -9 26 -6 14 5 19 2 19 -10 0 -11 -5 -15 -16 -11 -8 3
-12 2 -9 -4 11 -17 24 -11 40 19 8 16 23 32 32 35 10 2 -49 4 -132 3 -93 -1
-157 3 -169 10 -19 10 -19 11 0 16 10 3 35 9 54 13 48 9 158 121 197 199 34
67 63 173 63 228 l0 37 61 0 62 0 -6 -52 c-22 -186 -22 -174 -2 -158 10 8 26
29 37 45 17 28 18 29 18 7 0 -45 -41 -223 -75 -327 -79 -242 -198 -408 -365
-509 l-45 -28 57 6 c110 12 286 90 440 195 39 26 68 53 68 63 0 10 9 18 23 20
16 2 23 11 25 32 l4 29 -29 -22 c-119 -91 -308 -203 -383 -226 -20 -6 -14 4
32 52 154 163 257 403 288 673 14 117 14 117 98 216 l60 72 -25 23 -25 24 -16
-22 c-10 -12 -24 -32 -33 -44 -27 -39 -29 -5 -3 45 l26 48 -22 23 c-13 13 -32
25 -43 27 -17 2 -22 11 -25 43 -6 74 -42 327 -58 404 -20 101 -72 296 -89 338
-13 31 -5 47 11 22 6 -11 114 -6 148 7 16 6 293 316 320 358 l18 29 -33 -7
c-19 -4 -44 -7 -56 -8 -13 0 -23 -4 -23 -9 0 -4 -7 -5 -17 -2 -10 4 -14 2 -10
-4 4 -6 0 -14 -9 -17 -8 -3 -13 -10 -9 -15 3 -5 1 -12 -4 -15 -5 -3 -7 -24 -4
-45 l5 -40 -51 -7 c-28 -3 -48 -10 -46 -15 3 -4 0 -11 -6 -14 -5 -4 -8 -13 -5
-20 2 -7 -4 -21 -15 -31 -10 -9 -19 -13 -19 -9 0 4 -8 1 -18 -8 -18 -17 -36
-12 -43 12 -4 10 -13 6 -37 -14 -18 -15 -30 -31 -27 -35 3 -5 2 -11 -3 -14 -4
-2 -9 4 -9 15 -1 10 3 19 8 19 6 0 7 5 3 11 -4 8 -9 7 -15 -2 -7 -11 -11 -10
-24 6 -16 20 -16 19 -5 -2 10 -22 -2 -34 -14 -14 -4 5 -24 7 -45 5 -22 -3 -42
0 -45 5 -4 5 5 26 19 47 14 20 25 46 25 57 0 22 26 56 183 235 59 68 107 127
107 132 0 12 -73 80 -86 80 -6 0 -17 -6 -23 -13z m-465 -442 c17 -38 93 -200
168 -359 75 -159 136 -293 136 -298 0 -10 -295 -7 -303 3 -5 5 -44 510 -52
669 -4 85 -3 100 7 80 6 -14 26 -56 44 -95z m-568 -185 c43 -115 115 -263 186
-383 25 -43 46 -81 46 -85 0 -9 -146 -32 -197 -32 -38 0 -35 -13 -58 290 -8
113 -18 232 -21 265 -3 33 -4 58 -1 55 3 -3 23 -52 45 -110z m902 65 c11 -13
8 -15 -19 -15 -33 0 -42 16 -13 23 9 3 18 5 18 6 1 0 7 -6 14 -14z m-357 -702
c10 -76 20 -156 24 -177 4 -29 3 -37 -6 -32 -6 4 -61 81 -121 171 l-110 164
58 4 c31 2 75 4 98 5 l40 2 17 -137z m281 128 l70 -6 49 -149 c26 -81 46 -154
43 -161 -4 -13 -82 -18 -301 -19 l-90 -1 -6 100 c-4 55 -10 133 -14 173 l-8
72 94 -1 c52 -1 125 -4 163 -8z m-466 -136 c50 -67 92 -128 92 -133 0 -6 -21
-13 -47 -15 -46 -3 -46 -3 11 -5 56 -2 85 -17 86 -45 0 -5 -56 -7 -124 -5
-101 2 -128 6 -143 21 -11 9 -32 17 -47 17 -16 0 -48 13 -72 29 -24 17 -46 26
-49 20 -4 -5 -11 -7 -16 -4 -14 9 -11 -8 7 -33 16 -23 12 -42 -10 -42 -16 0
-22 28 -32 133 l-7 75 49 16 49 15 -44 -5 c-47 -7 -61 3 -61 43 0 18 7 23 48
28 26 3 54 8 62 9 8 2 47 4 85 4 l70 1 93 -124z m-408 58 c0 -21 7 -87 15
-147 8 -61 13 -112 10 -114 -10 -11 -105 248 -105 287 0 6 17 11 40 11 40 0
40 0 40 -37z m154 -289 c4 -9 -4 -18 -20 -24 -38 -15 -44 -13 -44 14 0 36 51
43 64 10z m63 -9 c0 -8 -4 -12 -9 -9 -4 3 -8 9 -8 15 0 5 4 9 8 9 5 0 9 -7 9
-15z m230 -162 c4 -10 11 -21 17 -25 7 -4 4 -20 -8 -45 l-19 -38 -13 30 c-7
17 -13 36 -14 43 0 6 -4 12 -10 12 -17 0 -11 28 8 33 30 8 32 7 39 -10z m236
-286 c31 -14 57 -30 57 -35 0 -16 -105 -109 -148 -131 -48 -24 -99 -27 -147
-7 -38 16 -109 86 -131 128 -16 31 -17 31 81 64 67 23 218 13 288 -19z"/>
<path d="M3580 4000 c-24 -8 -23 -8 8 -9 17 -1 32 4 32 9 0 11 -5 11 -40 0z"/>
<path d="M3518 3983 c6 -2 18 -2 25 0 6 3 1 5 -13 5 -14 0 -19 -2 -12 -5z"/>
<path d="M3478 3973 c7 -3 16 -2 19 1 4 3 -2 6 -13 5 -11 0 -14 -3 -6 -6z"/>
<path d="M3633 3763 c9 -2 23 -2 30 0 6 3 -1 5 -18 5 -16 0 -22 -2 -12 -5z"/>
<path d="M5300 4982 c0 -66 3 -82 15 -82 11 0 15 13 16 53 2 69 0 79 -17 97
-12 12 -14 3 -14 -68z"/>
<path d="M5140 4923 c0 -5 12 -16 25 -26 23 -17 25 -17 34 2 8 15 7 20 -5 25
-22 8 -54 7 -54 -1z"/>
<path d="M4741 4878 c-8 -19 -2 -30 32 -66 29 -29 48 -41 60 -38 14 3 18 0 14
-14 -3 -13 20 -42 82 -102 97 -96 128 -119 188 -138 34 -10 50 -11 88 0 44 12
52 23 37 47 -6 10 -16 10 -46 1 -38 -12 -39 -12 -72 27 -28 33 -36 37 -44 25
-8 -13 -10 -12 -11 5 0 18 -1 18 -7 2 -6 -15 -17 -9 -72 43 -36 33 -59 60 -52
60 7 0 11 4 7 10 -3 5 -12 7 -20 4 -7 -3 -18 3 -24 14 -7 14 -7 19 4 19 7 0
11 -7 8 -16 -4 -14 -3 -14 5 -2 14 20 -3 52 -23 45 -8 -4 -18 1 -21 10 -3 9
-10 13 -16 10 -13 -8 -49 26 -41 40 3 6 3 8 -1 4 -4 -3 -16 2 -27 13 -25 25
-38 24 -48 -3z m364 -296 c-3 -3 -11 0 -18 7 -9 10 -8 11 6 5 10 -3 15 -9 12
-12z"/>
<path d="M5220 4880 c0 -5 7 -10 16 -10 8 0 12 5 9 10 -3 6 -10 10 -16 10 -5
0 -9 -4 -9 -10z"/>
<path d="M5314 4859 c-3 -6 -1 -16 5 -22 8 -8 11 -5 11 11 0 24 -5 28 -16 11z"/>
<path d="M5010 4846 c0 -2 8 -10 18 -17 15 -13 16 -12 3 4 -13 16 -21 21 -21
13z"/>
<path d="M5220 4830 c0 -5 4 -10 9 -10 6 0 13 5 16 10 3 6 -1 10 -9 10 -9 0
-16 -4 -16 -10z"/>
<path d="M5315 4769 c-5 -8 -15 -24 -23 -37 -13 -20 -13 -22 2 -16 9 3 16 1
16 -5 0 -6 -6 -11 -14 -11 -21 0 -27 -27 -8 -35 12 -5 13 -8 4 -14 -10 -6 -9
-13 6 -31 l18 -23 22 46 c27 57 28 88 4 118 -15 18 -20 20 -27 8z"/>
<path d="M4444 4705 c-9 -22 1 -29 15 -11 8 10 9 16 1 21 -5 3 -13 -1 -16 -10z"/>
<path d="M4986 4697 c3 -10 9 -15 12 -12 3 3 0 11 -7 18 -10 9 -11 8 -5 -6z"/>
<path d="M5010 4701 c0 -6 4 -13 10 -16 6 -3 7 1 4 9 -7 18 -14 21 -14 7z"/>
<path d="M4408 4693 c10 -4 10 -8 0 -21 -12 -15 -11 -16 4 -3 19 14 15 32 -5
30 -8 0 -8 -2 1 -6z"/>
<path d="M5270 4500 c0 -14 -3 -43 -6 -65 -5 -27 -3 -37 3 -30 15 15 24 88 13
105 -8 12 -10 10 -10 -10z"/>
<path d="M5177 4223 c-10 -43 -26 -107 -34 -142 -12 -49 -13 -69 -4 -83 15
-24 14 -38 -4 -38 -8 0 -19 -8 -24 -18 -14 -26 -25 -118 -17 -138 6 -16 8 -16
20 2 38 54 98 359 88 443 l-7 52 -18 -78z"/>
<path d="M5270 4237 c0 -4 -13 -58 -30 -120 -35 -133 -34 -127 -15 -127 8 0
15 4 15 8 0 4 9 59 21 121 11 62 18 116 15 119 -3 3 -6 2 -6 -1z"/>
<path d="M2305 3944 c50 -7 97 -12 105 -11 20 4 -134 27 -168 26 -15 -1 14 -8
63 -15z"/>
<path d="M5180 3910 c-7 -22 -10 -43 -7 -47 4 -3 7 3 7 14 0 11 9 28 20 38 23
21 26 35 7 35 -8 0 -20 -18 -27 -40z"/>
<path d="M5710 3845 c-1 -5 -6 -91 -11 -190 -5 -99 -12 -209 -15 -245 -5 -59
-4 -64 10 -50 17 17 46 240 46 355 0 50 -26 163 -30 130z"/>
<path d="M5147 3809 c-4 -15 -1 -19 11 -17 21 4 29 38 9 38 -8 0 -17 -9 -20
-21z"/>
<path d="M5026 3678 c-20 -57 -36 -109 -36 -115 0 -44 50 27 85 121 14 38 24
69 23 70 -2 1 -10 7 -19 14 -14 11 -21 0 -53 -90z"/>
<path d="M2121 3746 c2 -2 31 -6 64 -9 39 -4 50 -3 30 2 -31 9 -102 14 -94 7z"/>
<path d="M5106 3725 c-4 -14 -18 -50 -32 -80 -25 -51 -27 -85 -6 -85 5 0 15
15 22 33 6 17 16 39 21 47 17 29 39 83 39 96 0 25 -37 16 -44 -11z"/>
<path d="M4542 3718 c-7 -7 -12 -19 -12 -28 0 -18 40 -60 56 -60 10 0 94 81
94 91 0 11 -127 8 -138 -3z"/>
<path d="M2234 3688 c69 -47 158 -100 161 -96 6 6 -77 60 -135 87 -25 12 -37
16 -26 9z"/>
<path d="M2341 3677 c2 -1 13 -9 24 -17 19 -14 19 -14 6 3 -7 9 -18 17 -24 17
-6 0 -8 -1 -6 -3z"/>
<path d="M4921 3443 c-24 -49 -55 -109 -71 -135 -26 -41 -27 -47 -12 -53 14
-6 13 -9 -9 -20 -25 -14 -26 -17 -18 -62 11 -55 5 -79 -21 -93 -14 -7 -23 -6
-34 6 -9 8 -16 20 -16 25 0 15 -63 -37 -85 -70 -11 -17 -26 -30 -34 -28 -9 1
-17 -10 -22 -31 -4 -19 -23 -51 -43 -71 -25 -25 -36 -46 -36 -66 l0 -29 40 39
40 39 0 -47 c0 -26 2 -47 4 -47 3 0 16 4 30 10 22 8 26 16 27 52 0 38 2 41 11
21 6 -13 15 -23 21 -23 5 0 4 -7 -3 -15 -10 -12 -9 -15 5 -15 9 0 19 -9 22
-20 4 -16 15 -7 62 53 31 40 73 97 94 128 37 55 37 56 31 131 -6 70 -5 76 17
97 19 17 31 21 57 16 28 -5 34 -3 39 14 3 11 4 23 3 27 -1 4 4 10 10 14 12 7
40 107 40 143 0 10 -8 17 -20 17 -11 0 -20 -5 -20 -12 0 -6 -3 -8 -6 -5 -4 4
0 17 9 31 17 25 13 36 -10 36 -8 0 -21 7 -29 15 -9 8 -19 15 -23 15 -5 0 -27
-39 -50 -87z m-227 -559 c3 -8 2 -12 -4 -9 -6 3 -10 10 -10 16 0 14 7 11 14
-7z"/>
<path d="M4756 3170 c-17 -29 -17 -33 -2 -48 21 -22 28 -12 24 38 l-3 42 -19
-32z"/>
<path d="M5645 3068 c-15 -91 -45 -303 -44 -317 1 -37 18 32 43 175 29 168 30
174 16 174 -5 0 -12 -15 -15 -32z"/>
<path d="M5686 3069 c-2 -8 -16 -84 -31 -169 -15 -85 -32 -166 -37 -179 -11
-31 -8 -33 28 -21 28 10 31 16 42 82 9 53 10 74 1 84 -9 11 -8 14 4 14 14 0
26 48 40 159 1 7 -8 20 -20 28 -19 13 -23 13 -27 2z"/>
<path d="M4635 2749 c-4 -6 -5 -13 -2 -16 7 -7 27 6 27 18 0 12 -17 12 -25 -2z"/>
<path d="M4599 2603 c0 -60 -4 -147 -7 -194 -6 -79 -10 -89 -41 -125 -29 -32
-32 -40 -18 -42 10 -2 33 2 53 8 41 14 52 9 29 -13 -22 -22 -84 -33 -107 -18
-15 10 -30 3 -96 -41 -42 -28 -111 -78 -152 -111 -145 -114 -340 -214 -770
-393 -207 -87 -291 -109 -404 -106 -126 3 -160 15 -225 76 -74 71 -272 224
-400 311 -185 126 -261 185 -327 251 l-64 65 0 -39 c0 -36 6 -46 60 -95 38
-34 60 -62 60 -75 0 -12 5 -22 10 -22 6 0 10 7 10 15 0 8 5 15 10 15 13 0 13
-43 0 -56 -6 -6 -4 -24 4 -49 17 -48 13 -55 -15 -29 l-22 19 6 -125 c6 -111
24 -289 57 -565 22 -180 52 -350 64 -358 30 -20 277 -91 406 -117 203 -40 365
-54 548 -46 217 8 333 23 356 46 18 18 17 21 -75 147 -52 70 -101 135 -110
144 -9 9 -19 43 -23 83 -4 37 -9 80 -13 96 -5 27 -3 30 20 30 14 0 29 5 32 10
17 27 26 -10 24 -97 l-2 -94 99 -135 c55 -73 101 -134 104 -134 3 0 64 49 135
110 72 60 136 109 144 110 8 0 -8 -17 -35 -37 -114 -87 -224 -192 -224 -214 0
-11 4 -19 9 -19 21 0 253 71 349 106 97 36 108 43 188 121 64 61 85 88 84 105
-1 13 -2 53 -1 91 1 61 3 67 21 67 12 0 38 8 58 18 l38 18 -17 -79 -17 -78
-92 -90 c-51 -49 -100 -94 -109 -99 -14 -8 -14 -9 1 -10 20 0 204 93 229 116
9 9 19 25 22 37 61 280 124 616 146 792 33 253 48 700 24 709 -18 7 -16 23 7
56 22 30 18 40 -17 40 -23 0 -23 -2 -24 -107z m21 -199 c0 -14 -4 -23 -10 -19
-5 3 -10 15 -10 26 0 10 5 19 10 19 6 0 10 -12 10 -26z m-90 -256 c-5 -24 -13
-149 -20 -278 -7 -129 -14 -241 -16 -248 -6 -20 -50 -33 -221 -63 -218 -38
-376 -51 -567 -47 l-159 3 -1 73 -1 72 160 75 c218 101 457 222 465 235 9 14
340 218 356 219 8 1 9 -12 4 -41z m-51 -700 c-11 -50 -21 -94 -24 -96 -7 -8
-170 -21 -260 -21 l-80 0 -43 60 c-58 79 -73 78 -148 -7 l-58 -65 -100 7 c-56
3 -112 8 -126 10 -14 1 -28 3 -32 3 -4 1 -19 23 -32 49 -13 27 -32 54 -40 61
-24 20 -57 -6 -86 -69 l-25 -53 -11 54 c-6 30 -14 66 -18 80 l-7 26 78 -13
c96 -16 317 -17 529 -4 169 11 427 44 466 59 13 6 26 10 29 10 4 1 -2 -40 -12
-91z m-914 -135 c16 -18 34 -25 83 -30 34 -3 62 -7 62 -9 0 -1 -25 -39 -56
-84 l-56 -81 -46 7 c-49 7 -68 14 -39 14 21 0 21 4 1 35 -9 13 -13 29 -9 35 3
5 1 10 -4 10 -6 0 -11 19 -11 43 0 24 -4 47 -10 53 -6 6 -4 22 8 47 l17 37 20
-27 c11 -14 29 -37 40 -50z m482 13 l42 -55 71 6 70 6 0 -55 c0 -30 -6 -66
-12 -81 -12 -24 -18 -27 -69 -27 l-55 0 6 53 c8 55 4 77 -12 77 -5 0 -7 -3 -5
-7 3 -5 -5 -9 -18 -9 -20 -2 -30 10 -58 67 -19 37 -32 70 -29 73 13 14 30 2
69 -48z"/>
<path d="M5585 2660 c3 -5 8 -10 11 -10 2 0 4 5 4 10 0 6 -5 10 -11 10 -5 0
-7 -4 -4 -10z"/>
<path d="M5645 2659 c-12 -19 5 -23 22 -6 16 16 16 17 1 17 -9 0 -20 -5 -23
-11z"/>
<path d="M5596 2624 c-13 -33 -6 -44 24 -44 36 0 39 18 6 42 -21 16 -25 16
-30 2z"/>
<path d="M1931 2463 l-21 -18 51 -85 51 -85 -6 56 c-5 47 -39 149 -50 149 -2
0 -13 -8 -25 -17z"/>
<path d="M1306 2160 c-142 -71 -260 -130 -262 -133 -6 -6 87 -157 150 -245 90
-123 88 -121 131 -126 43 -5 110 -9 136 -7 13 1 92 149 113 214 8 26 20 21 34
-15 19 -51 24 -26 8 43 -17 69 -14 95 3 33 6 -22 30 -93 55 -159 42 -115 45
-120 75 -123 35 -4 37 -21 -22 153 -19 55 -60 186 -92 290 -31 105 -60 193
-64 197 -3 4 -123 -51 -265 -122z"/>
<path d="M2745 2225 c-5 -2 -26 -6 -46 -9 -19 -4 -44 -13 -55 -21 -18 -14 -17
-14 10 -5 16 6 61 13 100 16 104 9 336 -25 336 -49 0 -9 -408 0 -445 10 -17 4
-18 3 -7 -8 18 -19 453 -20 459 -1 7 19 -50 38 -163 56 -94 15 -165 19 -189
11z"/>
<path d="M1781 1738 c0 -7 4 -22 9 -33 8 -18 9 -17 9 7 1 15 -3 30 -9 33 -5 3
-10 0 -9 -7z"/>
<path d="M1370 1562 c18 -23 36 -42 40 -42 3 0 14 16 23 35 17 35 17 35 -7 35
-13 0 -38 3 -57 7 l-33 6 34 -41z"/>
<path d="M1748 1585 c-8 -8 97 -256 169 -400 47 -91 69 -124 93 -138 17 -11
33 -17 36 -14 2 2 -26 63 -62 136 -37 73 -93 196 -124 274 -50 122 -62 142
-82 145 -13 2 -26 0 -30 -3z"/>
<path d="M5019 1563 l-24 -28 28 24 c25 23 32 31 24 31 -2 0 -14 -12 -28 -27z"/>
<path d="M1850 1502 c0 -5 7 -9 15 -9 8 0 12 4 9 9 -3 4 -9 8 -15 8 -5 0 -9
-4 -9 -8z"/>
<path d="M1904 1498 c3 -9 0 -18 -6 -20 -8 -3 -8 -9 0 -23 7 -14 7 -25 0 -40
-10 -18 -10 -19 7 -5 17 14 18 14 5 -10 -13 -24 -12 -24 6 -10 10 8 16 11 12
6 -4 -5 -1 -18 7 -29 10 -14 11 -26 5 -38 -11 -20 -3 -52 11 -43 5 3 9 10 9
15 0 6 -4 7 -10 4 -6 -3 -7 1 -4 9 5 13 10 11 26 -9 11 -14 18 -31 15 -38 -2
-6 0 -21 6 -32 9 -18 8 -19 -6 -6 -12 9 -15 21 -10 40 6 23 5 25 -10 12 -9 -7
-15 -16 -13 -20 1 -3 28 -59 60 -123 54 -113 58 -119 106 -143 28 -14 50 -24
50 -22 0 2 -61 125 -136 273 -74 148 -133 261 -130 252z"/>
<path d="M4766 1484 c-5 -12 -9 -14 -20 -5 -15 13 -63 -7 -88 -36 -18 -22
-108 -173 -108 -182 0 -4 -10 -18 -22 -31 -22 -23 -61 -120 -52 -129 8 -8 198
127 255 181 31 29 53 52 51 51 -3 -2 -11 2 -18 8 -11 9 -11 17 3 42 9 18 15
50 15 71 -2 45 -7 54 -16 30z m-2 -153 c3 -4 -6 -19 -21 -32 l-26 -24 14 25
c7 14 12 28 11 33 -3 10 16 9 22 -2z"/>
<path d="M4924 1458 l-19 -23 23 19 c12 11 22 21 22 23 0 8 -8 2 -26 -19z"/>
<path d="M4832 1420 c-13 -11 -22 -24 -20 -28 1 -5 13 4 26 20 27 33 26 35 -6
8z"/>
<path d="M4824 1368 l-19 -23 23 19 c12 11 22 21 22 23 0 8 -8 2 -26 -19z"/>
<path d="M1460 5184 c0 -8 5 -12 10 -9 6 3 10 10 10 16 0 5 -4 9 -10 9 -5 0
-10 -7 -10 -16z"/>
<path d="M5688 4450 c4 -38 26 -70 39 -57 7 8 -26 97 -36 97 -3 0 -5 -18 -3
-40z"/>
<path d="M904 1805 c-10 -25 10 -39 36 -25 26 14 22 34 -8 38 -13 2 -25 -3
-28 -13z"/>
<path d="M5055 1351 c-3 -5 -2 -12 3 -15 5 -3 9 1 9 9 0 17 -3 19 -12 6z"/>
<path d="M5003 1305 c0 -8 4 -12 9 -9 4 3 8 9 8 15 0 5 -4 9 -8 9 -5 0 -9 -7
-9 -15z"/>
<path d="M4945 1200 c-3 -6 1 -7 9 -4 18 7 21 14 7 14 -6 0 -13 -4 -16 -10z"/>
<path d="M4769 1143 c-8 -9 -9 -14 -2 -10 6 4 13 1 16 -5 3 -7 4 -3 4 10 -1
26 -1 26 -18 5z"/>
<path d="M4740 1100 c-8 -5 -12 -12 -9 -15 4 -3 12 1 19 10 14 17 11 19 -10 5z"/>
<path d="M4800 1090 c0 -5 5 -10 10 -10 6 0 10 5 10 10 0 6 -4 10 -10 10 -5 0
-10 -4 -10 -10z"/>
<path d="M4699 1063 c-13 -16 -12 -17 4 -4 16 13 21 21 13 21 -2 0 -10 -8 -17
-17z"/>
<path d="M4785 1039 c-10 -15 3 -25 16 -12 7 7 7 13 1 17 -6 3 -14 1 -17 -5z"/>
<path d="M4665 1030 c3 -5 8 -10 11 -10 2 0 4 5 4 10 0 6 -5 10 -11 10 -5 0
-7 -4 -4 -10z"/>
<path d="M4695 1010 c4 -6 11 -8 16 -5 14 9 11 15 -7 15 -8 0 -12 -5 -9 -10z"/>
<path d="M4525 740 c-3 -6 -18 -7 -32 -4 -22 6 -25 4 -20 -10 4 -10 1 -16 -9
-16 -8 0 -22 -7 -30 -15 -9 -8 -13 -15 -9 -15 10 0 125 60 125 65 0 9 -19 5
-25 -5z"/>
<path d="M3562 485 c-17 -37 -14 -45 4 -12 9 16 14 31 11 33 -2 2 -9 -7 -15
-21z"/>
</g>
</svg>
